# xmcd
#
# Track frame offsets:
#	150
#	18717
#	34247
#	51806
#	67730
#	86827
#	104174
#	129550
#	149593
#	166642
#	185737
#	205094
#	221303
#	239406
#	256896
#	276650
#	294687
#	315929
#
# Disc length: 4475 seconds
#
# Revision: 0
# Processed by: cddbd v1.5.1PL2 Copyright (c) Steve Scherf et al.
# Submitted via: audiograbber 1.83.01
#
DISCID=16117912
DTITLE=Sting - The best
DYEAR=1900
DGENRE=
TTITLE0=If you love somebody
TTITLE1=Love is the seventh wave
TTITLE2=Russians
TTITLE3=We'll be together
TTITLE4=Englishman in New York
TTITLE5=Fragile
TTITLE6=They dance alone
TTITLE7=All this time
TTITLE8=Mad about you
TTITLE9=It's probably me
TTITLE10=If I ever lose my faith
TTITLE11=Fields of gold
TTITLE12=When we dance
TTITLE13=This cowboy song
TTITLE14=Let your soul be your pilot
TTITLE15=Brand new day
TTITLE16=Desert rose
TTITLE17=After the rain has fallen
EXTD=
EXTT0=
EXTT1=
EXTT2=
EXTT3=
EXTT4=
EXTT5=
EXTT6=
EXTT7=
EXTT8=
EXTT9=
EXTT10=
EXTT11=
EXTT12=
EXTT13=
EXTT14=
EXTT15=
EXTT16=
EXTT17=
PLAYORDER=
